# Max2Obj Version 4.0 Mar 10th, 2001
#
mtllib ./kadibouda.mtl
g
# object kadibouda to come ...
#
v  -46.518703 21.013554 41.220467
v  -42.755375 21.013554 127.416168
v  -46.518703 159.674347 41.220467
v  -44.987675 155.293915 76.287247
v  -44.637039 133.010376 84.318329
v  -42.755375 156.206543 127.416168
v  -44.189026 159.674347 94.579720
v  -39.676949 21.013554 127.281769
v  -43.440289 21.013554 41.086060
v  -43.440289 159.674347 41.086060
v  -41.558620 133.010376 84.183914
v  -41.909260 155.293915 76.152855
v  -39.676949 156.206543 127.281769
v  -41.110596 159.674347 94.445313
v  -42.755375 21.013554 127.416168
v  -39.676949 21.013554 127.281769
v  -42.755375 156.206543 127.416168
v  -39.676949 156.206543 127.281769
v  -46.518703 21.013554 41.220467
v  -43.440289 21.013554 41.086060
v  -46.518703 159.674347 41.220467
v  -43.440289 159.674347 41.086060
v  -46.518703 21.013554 41.220467
v  -42.755375 21.013554 127.416168
v  -39.676949 21.013554 127.281769
v  -43.440289 21.013554 41.086060
v  -46.518703 159.674347 41.220467
v  -43.440289 159.674347 41.086060
v  -44.987675 155.293915 76.287247
v  -44.637039 133.010376 84.318329
v  -41.558620 133.010376 84.183914
v  -41.909260 155.293915 76.152855
v  -42.755375 156.206543 127.416168
v  -39.676949 156.206543 127.281769
v  -44.189026 159.674347 94.579720
v  -41.110596 159.674347 94.445313
v  -43.425491 195.122437 55.958153
v  -43.425491 191.013977 55.958153
v  46.220264 193.569199 61.627018
v  48.350613 137.077759 -51.355850
v  -46.220264 136.347717 -51.355850
v  46.220264 197.677673 61.627018
v  48.350613 141.186249 -51.355850
v  -46.220264 140.456177 -51.355850
v  -43.425491 195.122437 55.958153
v  -43.425491 191.013977 55.958153
v  46.220264 193.569199 61.627018
v  48.350613 137.077759 -51.355850
v  -46.220264 136.347717 -51.355850
v  46.220264 197.677673 61.627018
v  48.350613 141.186249 -51.355850
v  -46.220264 140.456177 -51.355850
v  -43.425491 195.122437 55.958153
v  -43.425491 191.013977 55.958153
v  46.220264 193.569199 61.627018
v  48.350613 137.077759 -51.355850
v  -46.220264 136.347717 -51.355850
v  46.220264 197.677673 61.627018
v  48.350613 141.186249 -51.355850
v  -46.220264 140.456177 -51.355850
v  43.138908 0.471214 -41.084679
v  -43.138908 0.471214 -41.084679
v  -43.138908 143.537537 -41.084679
v  45.269253 144.267593 -41.084679
v  -43.138908 0.471214 41.084679
v  36.834976 10.742384 39.671558
v  39.030445 10.742384 -36.976208
v  -43.138908 0.471214 -41.084679
v  -43.138908 185.352264 41.084679
v  41.160789 146.321823 -36.976208
v  -43.138908 143.537537 -41.084679
v  39.030445 185.352264 41.084679
v  -36.538986 10.742384 40.639557
v  43.138908 0.471214 41.084679
v  -39.030445 10.742384 -36.976208
v  43.138908 0.471214 -41.084679
v  -39.030445 185.352264 41.084679
v  -39.030445 145.591766 -36.976208
v  43.138908 185.352264 41.084679
v  45.269253 144.267593 -41.084679
v  39.030445 10.742384 -36.976208
v  -39.030445 10.742384 -36.976208
v  -39.030445 145.591766 -36.976208
v  41.160789 146.321823 -36.976208
v  -43.138908 0.471214 41.084679
v  -36.538986 10.742384 40.639557
v  43.138908 0.471214 41.084679
v  36.834976 10.742384 39.671558
v  -43.138908 185.352264 41.084679
v  -39.030445 185.352264 41.084679
v  39.030445 185.352264 41.084679
v  43.138908 185.352264 41.084679
v  -43.138908 0.471214 0.000002
v  -43.138908 62.098232 0.000002
v  43.138908 0.471214 0.000002
v  43.138908 62.098232 0.000002
v  15.406754 57.989765 -18.488102
v  7.703377 57.989765 -31.830740
v  -7.703378 57.989765 -31.830740
v  -15.406754 57.989765 -18.488100
v  -7.703375 57.989765 -5.145461
v  7.703378 57.989765 -5.145464
v  15.406754 62.098232 -18.488102
v  7.703377 62.098232 -31.830740
v  -7.703378 62.098232 -31.830740
v  -15.406754 62.098232 -18.488100
v  -7.703375 62.098232 -5.145461
v  7.703378 62.098232 -5.145464
v  -43.138908 62.098232 0.000002
v  43.138908 62.098232 0.000002
v  43.138908 62.098232 -41.084679
v  -43.138908 62.098232 -41.084679
v  -36.538986 10.742384 40.639557
v  36.834976 10.742384 39.671558
v  39.030445 10.742384 -36.976208
v  -39.030445 10.742384 -36.976208
v  -43.138908 0.471214 41.084679
v  43.138908 0.471214 41.084679
v  43.138908 0.471214 -41.084679
v  -43.138908 0.471214 -41.084679
# 120 vertices

vt  0.408609 0.009005 0.000000
vt  0.607733 0.009007 0.000000
vt  0.408605 0.329332 0.000000
vt  0.489615 0.319214 0.000000
vt  0.508168 0.267735 0.000000
vt  0.607730 0.321323 0.000000
vt  0.531873 0.329334 0.000000
vt  0.200456 0.010327 0.000000
vt  0.399581 0.010329 0.000000
vt  0.399577 0.330656 0.000000
vt  0.300016 0.269057 0.000000
vt  0.318568 0.320535 0.000000
vt  0.200453 0.322643 0.000000
vt  0.276310 0.330654 0.000000
vt  0.471108 0.678530 0.000000
vt  0.463996 0.678530 0.000000
vt  0.471109 0.366214 0.000000
vt  0.463997 0.366214 0.000000
vt  0.472567 0.685374 0.000000
vt  0.479678 0.685374 0.000000
vt  0.472568 0.365047 0.000000
vt  0.479680 0.365047 0.000000
vt  0.441645 0.668203 0.000000
vt  0.432952 0.469078 0.000000
vt  0.425840 0.469389 0.000000
vt  0.434534 0.668513 0.000000
vt  0.449990 0.446013 0.000000
vt  0.457102 0.445702 0.000000
vt  0.453528 0.527022 0.000000
vt  0.447619 0.430054 0.000000
vt  0.446809 0.481532 0.000000
vt  0.460639 0.526711 0.000000
vt  0.456733 0.441047 0.000000
vt  0.449621 0.440737 0.000000
vt  0.460045 0.365190 0.000000
vt  0.452933 0.364880 0.000000
vt  0.165658 0.722460 0.000000
vt  0.976136 0.976609 0.000000
vt  0.989233 0.769514 0.000000
vt  0.728227 0.764591 0.000000
vt  0.728225 0.983063 0.000000
vt  0.372753 0.709367 0.000000
vt  0.377671 0.970374 0.000000
vt  0.159199 0.970372 0.000000
vt  0.121471 0.556847 0.000000
vt  0.113052 0.561230 0.000000
vt  0.141038 0.528198 0.000000
vt  0.145800 0.819974 0.000000
vt  0.115505 0.839442 0.000000
vt  0.149457 0.523816 0.000000
vt  0.154218 0.815591 0.000000
vt  0.123923 0.835060 0.000000
vt  0.439697 0.481532 0.000000
vt  0.440507 0.430054 0.000000
vt  0.445144 0.692027 0.000000
vt  0.439853 0.426948 0.000000
vt  0.446965 0.426948 0.000000
vt  0.454635 0.692027 0.000000
vt  0.440889 0.365351 0.000000
vt  0.448000 0.365351 0.000000
vt  0.412301 0.686763 0.000000
vt  0.410616 0.468290 0.000000
vt  0.421792 0.686763 0.000000
vt  0.420107 0.468290 0.000000
vt  0.605634 0.756244 0.000000
vt  0.791977 0.013476 0.000000
vt  0.614909 0.013474 0.000000
vt  0.795457 0.756245 0.000000
vt  0.605636 0.329142 0.000000
vt  0.614906 0.326683 0.000000
vt  0.795458 0.425741 0.000000
vt  0.795237 0.416851 0.000000
vt  0.807142 0.012782 0.000000
vt  0.993748 0.757595 0.000000
vt  0.986446 0.012781 0.000000
vt  0.803925 0.757594 0.000000
vt  0.806116 0.416157 0.000000
vt  0.986447 0.324303 0.000000
vt  0.993749 0.330492 0.000000
vt  0.803926 0.425403 0.000000
vt  0.448731 0.484932 0.000000
vt  0.439240 0.484932 0.000000
vt  0.003757 0.326571 0.000000
vt  0.184089 0.326572 0.000000
vt  0.184090 0.015050 0.000000
vt  -0.001164 0.013363 0.000000
vt  0.393295 0.337328 0.000000
vt  0.408542 0.361056 0.000000
vt  0.592610 0.337330 0.000000
vt  0.578046 0.361058 0.000000
vt  0.393291 0.764430 0.000000
vt  0.402782 0.764430 0.000000
vt  0.583114 0.764432 0.000000
vt  0.592605 0.764432 0.000000
vt  0.391993 0.480712 0.000000
vt  0.391993 0.338345 0.000000
vt  0.436864 0.396544 0.000000
vt  0.192678 0.480711 0.000000
vt  0.192679 0.338344 0.000000
vt  0.422136 0.426837 0.000000
vt  0.386017 0.974296 0.000000
vt  0.386018 0.774982 0.000000
vt  0.045276 0.631069 0.000000
vt  0.076100 0.648865 0.000000
vt  0.076099 0.684457 0.000000
vt  0.045276 0.702253 0.000000
vt  0.014453 0.684457 0.000000
vt  0.014453 0.648865 0.000000
vt  0.002565 0.766318 0.000000
vt  0.002567 0.567003 0.000000
vt  0.097478 0.567004 0.000000
vt  0.097477 0.766318 0.000000
vt  0.185969 0.349539 0.000000
vt  0.177819 0.518863 0.000000
vt  0.000682 0.517752 0.000000
vt  0.006975 0.337530 0.000000
vt  0.193579 0.491876 0.000000
vt  0.193579 0.691191 0.000000
vt  0.383402 0.691191 0.000000
vt  0.383402 0.491876 0.000000
vt  0.422136 0.396014 0.000000
vt  0.422136 0.365191 0.000000
vt  0.412645 0.426837 0.000000
vt  0.412645 0.396014 0.000000
vt  0.412645 0.365191 0.000000
vt  0.436864 0.365721 0.000000
vt  0.436864 0.427368 0.000000
vt  0.427373 0.396544 0.000000
vt  0.427373 0.365721 0.000000
vt  0.427373 0.427368 0.000000
vt  0.716522 0.774984 0.000000
vt  0.718207 0.979220 0.000000
vt  0.436106 0.464946 0.000000
vt  0.436106 0.429355 0.000000
vt  0.426615 0.464946 0.000000
vt  0.426615 0.429355 0.000000
vt  0.422109 0.465025 0.000000
vt  0.422109 0.429433 0.000000
vt  0.412618 0.465025 0.000000
vt  0.412618 0.429433 0.000000
# 140 texture vertices

vn  -0.161597 -0.000000 0.007055
vn  -0.161597 -0.000000 0.007055
vn  -0.161597 0.000000 0.007055
vn  -0.161597 0.000000 0.007055
vn  -0.161597 0.000000 0.007055
vn  -0.161597 0.000000 0.007055
vn  -0.161597 -0.000000 0.007055
vn  0.161597 0.000000 -0.007055
vn  0.161597 0.000000 -0.007055
vn  0.161597 -0.000000 -0.007055
vn  0.161597 -0.000000 -0.007055
vn  0.161597 -0.000000 -0.007055
vn  0.161597 0.000000 -0.007055
vn  0.161597 -0.000000 -0.007055
vn  0.007055 0.000000 0.161597
vn  0.007055 0.000000 0.161597
vn  0.007055 0.000000 0.161597
vn  0.007055 0.000000 0.161597
vn  -0.007055 0.000000 -0.161597
vn  -0.007055 0.000000 -0.161597
vn  -0.007055 0.000000 -0.161597
vn  -0.007055 0.000000 -0.161597
vn  0.000000 -0.161751 -0.000000
vn  0.000000 -0.161751 -0.000000
vn  0.000000 -0.161751 -0.000000
vn  0.000000 -0.161751 -0.000000
vn  0.000874 0.160506 0.020012
vn  0.000874 0.160506 0.020012
vn  0.006636 0.054889 0.152008
vn  -0.006584 0.058143 -0.150796
vn  0.006636 0.054889 0.152008
vn  0.000874 0.160506 0.020012
vn  0.000740 0.160858 0.016956
vn  0.000740 0.160858 0.016956
vn  0.000740 0.160858 0.016956
vn  -0.006584 0.058143 -0.150796
vn  -0.001113 0.144136 -0.073395
vn  -0.000535 -0.144122 0.073430
vn  0.001117 -0.144662 0.072352
vn  0.001117 -0.144662 0.072352
vn  0.001117 -0.144662 0.072352
vn  0.000450 0.144677 -0.072330
vn  -0.001113 0.144136 -0.073395
vn  -0.001113 0.144136 -0.073395
vn  -0.161696 0.000000 0.004211
vn  -0.161696 0.000000 0.004211
vn  0.161722 0.000000 0.003049
vn  0.161722 0.000000 0.003049
vn  -0.161696 0.000000 0.004211
vn  0.161722 0.000000 0.003049
vn  0.161722 0.000000 0.003049
vn  -0.161696 0.000000 0.004211
vn  -0.010208 0.000000 0.161428
vn  -0.010208 0.000000 0.161428
vn  -0.010208 0.000000 0.161428
vn  0.000000 0.000000 -0.161751
vn  0.000000 0.000000 -0.161751
vn  -0.010208 0.000000 0.161428
vn  0.000000 0.000000 -0.161751
vn  0.000000 0.000000 -0.161751
vn  0.000000 0.000000 -0.161751
vn  0.000000 0.000000 -0.161751
vn  0.000000 0.000000 -0.161751
vn  0.000000 0.000000 -0.161751
vn  -0.161751 0.000000 -0.000000
vn  -0.161671 0.002070 -0.004631
vn  -0.161631 0.002540 -0.005681
vn  -0.161751 0.000000 -0.000000
vn  -0.161751 0.000000 -0.000000
vn  -0.161631 0.002540 -0.005681
vn  -0.161751 0.000000 -0.000000
vn  -0.161631 0.002540 -0.005681
vn  0.161730 0.002311 -0.001177
vn  0.161696 0.000000 0.004192
vn  0.161667 0.000000 -0.005190
vn  0.161733 -0.002396 -0.000000
vn  0.161730 0.002311 -0.001177
vn  0.161730 0.002311 -0.001177
vn  0.161696 0.000000 0.004192
vn  0.161696 0.000000 0.004192
vn  0.000000 0.000000 0.161751
vn  0.000000 0.000000 0.161751
vn  0.000000 0.000000 0.161751
vn  0.000000 0.000000 0.161751
vn  0.002132 0.005635 0.161638
vn  0.002132 0.005635 0.161638
vn  0.000000 0.022046 0.160241
vn  0.002132 0.005635 0.161638
vn  0.000000 0.000000 0.161751
vn  0.000000 0.000000 0.161751
vn  0.000000 -0.001309 0.161745
vn  0.000000 -0.001309 0.161745
vn  0.000000 0.000000 0.161751
vn  0.000000 0.000000 0.161751
vn  0.000000 0.000000 0.161751
vn  0.000000 0.000000 0.161751
vn  -0.140080 0.000000 0.080875
vn  0.000000 0.000000 0.161751
vn  0.140080 0.000000 0.080875
vn  0.140080 0.000000 -0.080875
vn  0.140080 0.000000 -0.080875
vn  -0.140080 0.000000 -0.080875
vn  0.000000 0.161751 -0.000000
vn  0.000000 0.161751 -0.000000
vn  0.000000 0.161751 -0.000000
vn  0.000000 0.161751 -0.000000
vn  0.000000 0.161751 -0.000000
vn  0.000000 0.161751 -0.000000
vn  0.000000 0.161751 -0.000000
vn  0.000000 0.161751 -0.000000
vn  0.000000 0.161751 -0.000000
vn  0.000000 0.161751 -0.000000
vn  0.000000 0.161751 -0.000000
vn  0.000000 0.161751 -0.000000
vn  0.000000 0.161751 -0.000000
vn  0.000000 0.161751 -0.000000
vn  0.000000 -0.161751 -0.000000
vn  0.000000 -0.161751 -0.000000
vn  0.000000 -0.161751 -0.000000
vn  0.000000 -0.161751 -0.000000
# 120 vertex normals

g kadibouda
usemtl 01_-_Default
s 0
f 7/7/7 1/1/1 2/2/2
f 5/5/5 4/4/4 3/3/3
f 7/7/7 2/2/2 6/6/6
f 1/1/1 5/5/5 3/3/3
f 13/13/13 8/8/8 9/9/9
f 10/10/10 12/12/12 11/11/11
f 13/13/13 9/9/9 14/14/14
f 10/10/10 11/11/11 9/9/9
f 17/17/17 15/15/15 16/16/16
f 17/17/17 16/16/16 18/18/18
f 22/22/22 20/20/20 19/19/19
f 21/21/21 22/22/22 19/19/19
f 32/32/32 28/28/28 27/27/27
f 31/53/31 32/54/32 29/30/29
f 36/60/36 31/57/31 30/56/30
f 34/34/34 36/36/36 35/35/35
f 29/29/29 32/32/32 27/27/27
f 30/31/30 31/53/31 29/30/29
f 35/59/35 36/60/36 30/56/30
f 33/33/33 34/34/34 35/35/35
f 23/23/23 26/26/26 25/25/25
f 23/23/23 25/25/25 24/24/24
f 43/43/43 44/44/44 37/37/37
f 41/41/41 40/40/40 39/39/39
f 42/42/42 43/43/43 37/37/37
f 38/38/38 41/41/41 39/39/39
f 50/50/50 47/47/47 48/48/48
f 52/52/52 49/49/49 46/46/46
f 51/51/51 50/50/50 48/48/48
f 45/45/45 52/52/52 46/46/46
f 53/55/53 54/58/54 55/81/55
f 59/63/59 56/61/56 57/62/57
f 58/82/58 53/55/53 55/81/55
f 60/64/60 59/63/59 57/62/57
f 62/102/62 63/131/63 64/132/64
f 61/101/61 62/102/62 64/132/64
f 69/69/69 71/71/71 68/68/68
f 72/72/72 70/70/70 67/67/67
f 65/65/65 69/69/69 68/68/68
f 66/66/66 72/72/72 67/67/67
f 78/78/78 77/77/77 73/73/73
f 80/80/80 79/79/79 74/74/74
f 75/75/75 78/78/78 73/73/73
f 76/76/76 80/80/80 74/74/74
f 84/86/84 83/85/83 82/84/82
f 81/83/81 84/86/84 82/84/82
f 88/90/88 86/88/86 85/87/85
f 90/92/90 89/91/89 85/87/85
f 92/94/92 91/93/91 88/90/88
f 87/89/87 88/90/88 85/87/85
f 86/88/86 90/92/90 85/87/85
f 87/89/87 92/94/92 88/90/88
f 96/99/96 94/96/94 93/95/93
f 95/98/95 96/99/96 93/95/93
f 112/112/112 105/105/105 104/104/104
f 103/103/103 111/111/111 104/104/104
f 110/110/110 111/111/111 103/103/103
f 108/108/108 110/110/110 103/103/103
f 109/109/109 110/110/110 108/108/108
f 106/106/106 109/109/109 107/107/107
f 112/112/112 109/109/109 106/106/106
f 105/105/105 112/112/112 106/106/106
f 107/125/107 101/122/101 100/121/100
f 106/124/106 100/121/100 99/100/99
f 105/140/105 99/138/99 98/137/98
f 104/129/104 98/126/98 97/97/97
f 103/128/103 97/97/97 102/127/102
f 108/136/108 102/134/102 101/133/101
f 111/111/111 112/112/112 104/104/104
f 107/107/107 109/109/109 108/108/108
f 106/124/106 107/125/107 100/121/100
f 105/123/105 106/124/106 99/100/99
f 104/139/104 105/140/105 98/137/98
f 103/128/103 104/129/104 97/97/97
f 108/130/108 103/128/103 102/127/102
f 107/135/107 108/136/108 101/133/101
f 115/115/115 116/116/116 113/113/113
f 114/114/114 115/115/115 113/113/113
f 118/118/118 117/117/117 120/120/120
f 119/119/119 118/118/118 120/120/120
# 80 faces

g
